# xmcd
#
# Track frame offsets: 
#        150
#        16174
#        31438
#        46500
#        65975
#        76868
#        94875
#        110808
#        128562
#        143949
#        157595
#        182423
#        198180
#        212799
#        226386
#        241703
#        254912
#        275264
#        291307
#        314318
#
# Disc length: 4363 seconds
#
# Revision: 0
# Processed by: cddbd v1.5.2PL0 Copyright (c) Steve Scherf et al.
# Submitted via: ExactAudioCopy v1.1
#
DISCID=14110914
DTITLE=Various Artist - Het Beste Uit De MNM 1000 Van 2016 - CD 4
DYEAR=2016
DGENRE=Pop
TTITLE0=Katy Perry Feat. Juicy J - Dark Horse
TTITLE1=Pitbull Feat. Ke$Ha - Timber
TTITLE2=Shakira Feat. Freshlyground - Waka Waka (This Time For Africa)
TTITLE3=Nicki Minaj - Anaconda
TTITLE4=Lil Kleine and Ronnie Flex - Drank and Drugs
TTITLE5=Amy Winehouse - Back To Black
TTITLE6=Backstreet Boys - I Want It That Way
TTITLE7=James Bay - Hold Back The River
TTITLE8=Bob Sinclar Presents Goleo Vi Feat. Gary 'Nesta' Pine - Love G
TTITLE8=eneration
TTITLE9=Axwell Λ Ingrosso - Sun Is Shining
TTITLE10=Goose - Synrise
TTITLE11=De Jeugd Van Tegenwoordig - Watskeburt?!
TTITLE12=Aqua - Barbie Girl
TTITLE13=Silentó - Watch Me (Whip - Nae Nae)
TTITLE14=Lea Rue - I Can't Say No! (Broiler Remix)
TTITLE15=Robin Schulz Feat. Jasmine Thompson - Sun Goes Down
TTITLE16=Outkast - Ms. Jackson
TTITLE17=Lea Michele - Cannonball
TTITLE18=The Cranberries - Zombie
TTITLE19=Loïc Nottet - Rhythm Inside
EXTD=
EXTT0=
EXTT1=
EXTT2=
EXTT3=
EXTT4=
EXTT5=
EXTT6=
EXTT7=
EXTT8=
EXTT9=
EXTT10=
EXTT11=
EXTT12=
EXTT13=
EXTT14=
EXTT15=
EXTT16=
EXTT17=
EXTT18=
EXTT19=
PLAYORDER=
